<svg width="24" height="22" viewBox="0 0 24 22" fill="none" xmlns="http://www.w3.org/2000/svg">
<path fill-rule="evenodd" clip-rule="evenodd" d="M16.6383 4.72161C15.2514 4.05554 13.6727 3.67871 11.9978 3.67871C7.49587 3.67871 3.6888 6.40103 2.43508 10.1449C2.2495 10.6991 2.2495 11.3001 2.43508 11.8543C2.90421 13.2552 3.73085 14.5131 4.81763 15.5388L5.92829 14.5225C4.97252 13.6435 4.25469 12.5642 3.85745 11.378C3.77538 11.1329 3.77538 10.8663 3.85745 10.6212C4.88966 7.53879 8.08646 5.17871 11.9978 5.17871C13.2274 5.17871 14.3864 5.41197 15.4297 5.82759L16.6383 4.72161ZM8.56868 16.1728C9.61127 16.5877 10.7693 16.8205 11.9978 16.8205C15.9091 16.8205 19.1059 14.4604 20.1381 11.378C20.2201 11.1329 20.2201 10.8663 20.1381 10.6212C19.7411 9.4358 19.024 8.35724 18.0693 7.47865L19.1799 6.4623C20.2657 7.48768 21.0916 8.74485 21.5604 10.1449C21.746 10.6991 21.746 11.3001 21.5604 11.8543C20.3067 15.5982 16.4996 18.3205 11.9978 18.3205C10.3239 18.3205 8.74614 17.9441 7.35994 17.2789L8.56868 16.1728Z" fill="#7F7F7F"/>
<path d="M21 2.76367L3 19.2357" stroke="#7F7F7F" stroke-width="1.5" stroke-linecap="round" stroke-linejoin="round"/>
<path fill-rule="evenodd" clip-rule="evenodd" d="M13.491 7.60162C13.0302 7.43213 12.527 7.33887 12 7.33887C9.79086 7.33887 8 8.9777 8 10.9993C8 11.4816 8.10192 11.9421 8.28712 12.3637L9.51636 11.2388C9.50552 11.1592 9.5 11.0792 9.5 10.9993C9.5 9.92861 10.4913 8.83887 12 8.83887C12.0457 8.83887 12.091 8.83987 12.1357 8.84184L13.491 7.60162ZM11.8643 13.1568C11.909 13.1587 11.9543 13.1597 12 13.1597C13.5087 13.1597 14.5 12.07 14.5 10.9993C14.5 10.9194 14.4945 10.8394 14.4836 10.7598L15.7129 9.63489C15.8981 10.0565 16 10.517 16 10.9993C16 13.0209 14.2091 14.6597 12 14.6597C11.473 14.6597 10.9698 14.5665 10.509 14.397L11.8643 13.1568Z" fill="#7F7F7F"/>
</svg>
