<svg width="24" height="22" viewBox="0 0 24 22" fill="none" xmlns="http://www.w3.org/2000/svg">
<mask id="path-1-inside-1_1017_3445" fill="white">
<path fill-rule="evenodd" clip-rule="evenodd" d="M2.43508 11.8543C2.2495 11.3001 2.2495 10.6991 2.43508 10.1449C3.6888 6.40103 7.49587 3.67871 11.9978 3.67871C16.4996 3.67871 20.3067 6.40103 21.5604 10.1449C21.746 10.6991 21.746 11.3001 21.5604 11.8543C20.3067 15.5982 16.4996 18.3205 11.9978 18.3205C7.49587 18.3205 3.6888 15.5982 2.43508 11.8543Z"/>
</mask>
<path d="M21.5604 10.1449L22.9828 9.66857L21.5604 10.1449ZM21.5604 11.8543L20.1381 11.378L21.5604 11.8543ZM3.85745 10.6212C4.88966 7.53879 8.08646 5.17871 11.9978 5.17871V2.17871C6.90528 2.17871 2.48793 5.26326 1.01271 9.66857L3.85745 10.6212ZM11.9978 5.17871C15.9091 5.17871 19.1059 7.53879 20.1381 10.6212L22.9828 9.66857C21.5076 5.26326 17.0902 2.17871 11.9978 2.17871V5.17871ZM20.1381 11.378C19.1059 14.4604 15.9091 16.8205 11.9978 16.8205V19.8205C17.0902 19.8205 21.5076 16.7359 22.9828 12.3306L20.1381 11.378ZM11.9978 16.8205C8.08646 16.8205 4.88966 14.4604 3.85745 11.378L1.01271 12.3306C2.48793 16.7359 6.90528 19.8205 11.9978 19.8205V16.8205ZM20.1381 10.6212C20.2201 10.8663 20.2201 11.1329 20.1381 11.378L22.9828 12.3306C23.2719 11.4673 23.2719 10.5318 22.9828 9.66857L20.1381 10.6212ZM1.01271 9.66857C0.723627 10.5318 0.723626 11.4673 1.01271 12.3306L3.85745 11.378C3.77538 11.1329 3.77538 10.8663 3.85745 10.6212L1.01271 9.66857Z" fill="#363538" mask="url(#path-1-inside-1_1017_3445)"/>
<path d="M15.25 10.9993C15.25 12.5455 13.8589 13.9097 12 13.9097C10.1411 13.9097 8.75 12.5455 8.75 10.9993C8.75 9.45315 10.1411 8.08887 12 8.08887C13.8589 8.08887 15.25 9.45315 15.25 10.9993Z" stroke="#363538" stroke-width="1.5"/>
</svg>
